<svg width="16" height="16" viewBox="0 0 16 16" fill="none" xmlns="http://www.w3.org/2000/svg">
<path fill-rule="evenodd" clip-rule="evenodd" d="M7.99998 1.33325C4.31998 1.33325 1.33331 4.31992 1.33331 7.99992C1.33331 11.6799 4.31998 14.6666 7.99998 14.6666C11.68 14.6666 14.6666 11.6799 14.6666 7.99992C14.6666 4.31992 11.68 1.33325 7.99998 1.33325ZM7.99998 13.3333C5.05331 13.3333 2.66665 10.9466 2.66665 7.99992C2.66665 5.05325 5.05331 2.66659 7.99998 2.66659C10.9466 2.66659 13.3333 5.05325 13.3333 7.99992C13.3333 10.9466 10.9466 13.3333 7.99998 13.3333ZM4.66665 7.99992C4.66665 6.15897 6.15903 4.66658 7.99998 4.66658C9.84093 4.66658 11.3333 6.15897 11.3333 7.99992C11.3333 9.84087 9.84093 11.3333 7.99998 11.3333C6.15903 11.3333 4.66665 9.84087 4.66665 7.99992Z" fill="#45B26B"/>
</svg>
