<svg width="40" height="40" viewBox="0 0 40 40" fill="none" xmlns="http://www.w3.org/2000/svg">
<circle cx="20" cy="20" r="20" fill="#9757D7"/>
<path d="M15.0979 18.376L9.85669 28.2506L14.6162 27.8109L16.9197 31.9994L22.161 22.1247L15.0979 18.376Z" fill="#E95454"/>
<path d="M15.6981 29.1241C15.8452 28.8082 15.6913 28.4308 15.3837 28.2672L15.0821 28.1066C14.7804 27.9348 14.6656 27.5529 14.8299 27.2437C14.9965 26.9293 15.3882 26.8093 15.7026 26.9759L16.555 27.4283C16.8184 27.5679 17.1485 27.4666 17.2843 27.2017L17.3053 27.1612C17.4614 26.9113 17.3691 26.5812 17.1095 26.4439L14.5598 25.091C14.2492 24.9259 14.0968 24.55 14.2417 24.2333C14.4015 23.8964 14.8052 23.7636 15.1301 23.9362L17.4952 25.1915C17.7586 25.3311 18.0887 25.2298 18.2283 24.9664L18.2418 24.9319L18.2455 24.9244C18.3964 24.6483 18.2906 24.3016 18.0122 24.1538L16.6856 23.45C16.3749 23.2849 16.2226 22.9089 16.3697 22.5885C16.528 22.2554 16.9332 22.1188 17.2581 22.2914L18.7235 23.0695C18.9974 23.2151 19.3245 23.0935 19.4664 22.8174C19.4686 22.8137 19.4686 22.8137 19.4701 22.8099C19.4724 22.8062 19.4724 22.8062 19.4739 22.8024C19.6232 22.53 19.5406 22.1909 19.266 22.046L17.685 21.2072C17.3781 21.0443 17.2258 20.6684 17.3706 20.3518C17.5305 20.0148 17.9341 19.882 18.259 20.0546L22.1594 22.1248L16.9182 31.9995L15.4737 29.374C15.5668 29.311 15.6478 29.2329 15.6981 29.1241Z" fill="#ED6362"/>
<path d="M24.9019 18.376L30.1431 28.2506L25.3837 27.8109L23.0801 31.9994L17.8389 22.1247L24.9019 18.376Z" fill="#ED6362"/>
<path d="M24.3016 29.1239C24.1546 28.808 24.3084 28.4305 24.616 28.267L24.9177 28.1064C25.2193 27.9345 25.3341 27.5526 25.1698 27.2435C25.0032 26.9291 24.6115 26.809 24.2971 26.9756L23.4447 27.4281C23.1814 27.5676 22.8512 27.4663 22.7154 27.2015L22.6944 27.1609C22.5383 26.9111 22.6306 26.5809 22.8902 26.4436L25.4407 25.09C25.7513 24.9249 25.9036 24.549 25.7588 24.2323C25.599 23.8954 25.1953 23.7626 24.8704 23.9352L22.5053 25.1905C22.2419 25.3301 21.9118 25.2288 21.7722 24.9654L21.7587 24.9309L21.7549 24.9234C21.6041 24.6473 21.7099 24.3006 21.9883 24.1528L23.3149 23.4489C23.6256 23.2839 23.7779 22.9079 23.6308 22.5875C23.4725 22.2544 23.0673 22.1178 22.7424 22.2904L21.2755 23.07C21.0016 23.2156 20.6744 23.094 20.5326 22.8179C20.5304 22.8141 20.5304 22.8141 20.5289 22.8104C20.5266 22.8066 20.5266 22.8066 20.5251 22.8029C20.3758 22.5305 20.4583 22.1914 20.733 22.0465L22.3139 21.2076C22.6208 21.0448 22.7732 20.6689 22.6283 20.3522C22.4685 20.0153 22.0648 19.8825 21.7399 20.0551L17.8396 22.1253L23.0808 32L24.5252 29.3745C24.4329 29.3107 24.3519 29.2327 24.3016 29.1239Z" fill="#E95454"/>
<path d="M20 25.5147C24.8366 25.5147 28.7574 21.5939 28.7574 16.7574C28.7574 11.9208 24.8366 8 20 8C15.1635 8 11.2427 11.9208 11.2427 16.7574C11.2427 21.5939 15.1635 25.5147 20 25.5147Z" fill="#FFCC5B"/>
<path d="M21.1877 15.7526H15.6381C15.2067 15.7526 14.8525 15.3984 14.8525 14.9669L14.8585 14.9129V14.9009C14.8525 14.4454 15.2239 14.0733 15.6801 14.0733H19.5264C20.0359 14.0733 20.4861 13.6958 20.5162 13.1856C20.5402 12.6521 20.1147 12.2019 19.5805 12.2019H15.5061C15.0566 12.2019 14.7204 11.8245 14.7264 11.3743C14.7264 11.3682 14.7264 11.3682 14.7264 11.3622C14.7264 11.3562 14.7264 11.3562 14.7264 11.3502C14.7204 10.9008 15.0558 10.5226 15.5061 10.5226H19.7696C20.273 10.5226 20.7232 10.1452 20.7533 9.64094C20.7773 9.10143 20.3518 8.65723 19.8176 8.65723H16.6954C13.5116 9.96959 11.2681 13.1001 11.2681 16.7573C11.2681 20.4145 13.5116 23.5442 16.6961 24.8551H20.6602C21.1637 24.8551 21.6139 24.4776 21.6439 23.9734C21.6679 23.4339 21.2425 22.9904 20.7082 22.9904L16.1986 22.9897C15.6666 22.9897 15.2382 22.5447 15.2667 22.006C15.293 21.5017 15.7462 21.1228 16.2512 21.1228H17.9995C18.5022 21.1086 18.9081 20.6966 18.9081 20.1901C18.9081 19.6746 18.4887 19.2544 17.9725 19.2544H15.3222C14.8908 19.2544 14.5366 18.901 14.5426 18.4688V18.4028C14.5126 17.9773 14.8547 17.6172 15.2802 17.6172H21.1337C21.6432 17.6172 22.0934 17.2397 22.1234 16.7355C22.1474 16.1968 21.7212 15.7526 21.1877 15.7526Z" fill="#FDBC4B"/>
<path d="M20 23.008C16.5528 23.008 13.7488 20.2031 13.7488 16.7568C13.7488 13.3104 16.5528 10.5063 20 10.5063C23.4471 10.5063 26.2511 13.3112 26.2511 16.7575C26.2511 20.2039 23.4471 23.008 20 23.008Z" fill="#FFDB70"/>
<path opacity="0.2" d="M26.2512 16.7576C26.2512 13.432 23.6385 10.712 20.3587 10.5244H19.7764C19.3922 10.5244 19.0493 10.8125 19.0261 11.1967C19.0081 11.6079 19.3322 11.9471 19.7396 11.9471L23.1793 11.9478C23.5852 11.9478 23.9116 12.287 23.8898 12.6982C23.8696 13.0831 23.5244 13.372 23.1387 13.372H21.8054C21.4219 13.3833 21.112 13.6969 21.112 14.0833C21.112 14.4765 21.4324 14.7969 21.8256 14.7969H23.8471C24.1765 14.7969 24.4458 15.067 24.4413 15.3957V15.4452C24.4639 15.7701 24.2035 16.044 23.8786 16.044H19.4147C19.0261 16.044 18.6832 16.3321 18.6599 16.7163C18.6419 17.1275 18.966 17.4667 19.3735 17.4667H23.6055C23.9349 17.4667 24.2042 17.7368 24.2042 18.0654L24.1997 18.1067V18.1157C24.2042 18.4631 23.9206 18.7468 23.5732 18.7468H20.6393C20.2506 18.7468 19.9077 19.0349 19.8845 19.4236C19.8665 19.8303 20.1906 20.1739 20.598 20.1739H23.7053C24.0482 20.1739 24.304 20.4621 24.2995 20.805C24.2995 20.8095 24.2995 20.8095 24.2995 20.814C24.2995 20.8185 24.2995 20.8185 24.2995 20.823C24.304 21.1659 24.0482 21.454 23.7053 21.454H20.454C20.0698 21.454 19.7269 21.7422 19.7036 22.1264C19.6856 22.5383 20.0098 22.8767 20.4172 22.8767H21.2749C24.1134 22.2854 26.2512 19.7665 26.2512 16.7576Z" fill="white"/>
<path d="M24.364 15.3731H21.3235L20.3833 12.4812C20.2625 12.1098 19.7365 12.1098 19.6157 12.4812L18.6763 15.3731H15.6359C15.2449 15.3731 15.0821 15.8736 15.3988 16.1032L17.8584 17.8905L16.919 20.7824C16.7982 21.1538 17.2236 21.4629 17.5403 21.2333L19.9999 19.446L22.4596 21.2333C22.7762 21.4629 23.2017 21.1538 23.0809 20.7824L22.1414 17.8905L24.6011 16.1032C24.917 15.8736 24.7549 15.3731 24.364 15.3731Z" fill="#EC9922"/>
</svg>
