<svg width="40" height="40" viewBox="0 0 40 40" fill="none" xmlns="http://www.w3.org/2000/svg">
<circle cx="20" cy="20" r="20" fill="#45B26B"/>
<g clip-path="url(#clip0)">
<path d="M31.7926 8.22293C31.9648 8.39438 32.0365 8.64287 31.9818 8.87981L30.9755 13.2476C30.9444 13.3826 30.8742 13.5053 30.7737 13.6005L18.0247 25.6709C17.7488 25.932 17.3157 25.9263 17.0468 25.658L14.3701 22.9866C14.2326 22.8494 14.1636 22.669 14.1636 22.4885C14.1636 22.3143 14.2278 22.1399 14.3568 22.004L26.4434 9.27017C26.5371 9.17135 26.6576 9.10196 26.7901 9.07051L31.1356 8.03759C31.3719 7.98139 31.6203 8.05153 31.7926 8.22293Z" fill="#E8EDF5"/>
<path d="M15.7436 22.5684L17.4586 24.2812C17.589 24.4114 17.6623 24.5883 17.6623 24.7727C17.6623 24.9571 17.589 25.134 17.4586 25.2642L11.8848 30.831C11.6143 31.1012 11.1765 31.1012 10.9059 30.831L9.19098 29.1182C9.06057 28.9879 8.9873 28.8111 8.9873 28.6266C8.9873 28.4422 9.06057 28.2653 9.19098 28.1351L14.7647 22.5684C15.0353 22.2982 15.473 22.2982 15.7436 22.5684Z" fill="#BC5F19"/>
<path d="M31.9819 8.87956L30.9755 13.2473C30.9444 13.3823 30.8742 13.5051 30.7737 13.6002L18.0247 25.6706C17.7489 25.9318 17.3157 25.9261 17.0469 25.6577L15.7092 24.3227L31.8059 8.23682C31.9683 8.40761 32.0351 8.64896 31.9819 8.87956Z" fill="#CDD4E3"/>
<path d="M17.4586 24.2814C17.589 24.4116 17.6622 24.5885 17.6622 24.7729C17.6622 24.9573 17.589 25.1342 17.4586 25.2645L11.8848 30.8312C11.6143 31.1014 11.1765 31.1014 10.9059 30.8312L10.0596 29.9859L16.6058 23.4297L17.4586 24.2814Z" fill="#8F4813"/>
<path d="M12.2871 27.7333C12.7619 28.2075 13.0235 28.8382 13.0235 29.5092C13.0235 30.1802 12.7619 30.8108 12.2871 31.2851C11.3082 32.2628 9.71534 32.2628 8.73636 31.2851C8.26152 30.8108 8 30.1802 8 29.5092C8 28.8383 8.26152 28.2075 8.73636 27.7333C9.7153 26.7556 11.3082 26.7556 12.2871 27.7333Z" fill="#FFCD00"/>
<path d="M13.0234 29.5094C13.0234 30.1803 12.7619 30.811 12.2871 31.2853C11.3126 32.2586 9.72977 32.2626 8.74976 31.298L12.2977 27.7446C12.7657 28.2176 13.0234 28.8436 13.0234 29.5094Z" fill="#FF9F22"/>
<path d="M12.7268 19.3583C12.7292 19.3607 12.7315 19.3633 12.7339 19.3658C12.7352 19.3671 12.7367 19.3682 12.738 19.3695L20.6616 27.283C20.6628 27.2842 20.6639 27.2857 20.6652 27.2869C20.6676 27.2894 20.6703 27.2917 20.6728 27.2942C21.0968 27.7177 21.3303 28.2809 21.3303 28.8801C21.3303 29.4793 21.0968 30.0425 20.6728 30.4659C19.7987 31.3389 18.3765 31.3389 17.5025 30.4659C17.0784 30.0425 16.8449 29.4793 16.8449 28.8801V28.88C16.8449 28.2809 17.0784 27.7176 17.5025 27.2942C17.7112 27.0856 17.9515 26.9275 18.208 26.8186L13.2058 21.8228C13.0946 22.0837 12.9336 22.3236 12.7268 22.5301C11.8528 23.403 10.4306 23.403 9.55649 22.5301C9.13246 22.1066 8.89893 21.5433 8.89893 20.9442C8.89893 20.345 9.13246 19.7818 9.55649 19.3583C10.4305 18.4854 11.8527 18.4854 12.7268 19.3583Z" fill="#FFCD00"/>
<path d="M20.6624 27.283C20.6636 27.2843 20.6647 27.2858 20.666 27.287C20.6685 27.2895 20.6711 27.2918 20.6736 27.2943C21.0976 27.7178 21.3311 28.281 21.3311 28.8802C21.3311 29.4794 21.0976 30.0426 20.6736 30.466C19.7995 31.339 18.3773 31.339 17.5033 30.466C17.0792 30.0426 16.8457 29.4794 16.8457 28.8802V28.8801C16.8457 28.281 17.0792 27.7177 17.5033 27.2943C17.712 27.0857 17.9523 26.9276 18.2088 26.8187L15.7124 24.3255L16.7053 23.3311L20.6624 27.283Z" fill="#FF9F22"/>
</g>
<defs>
<clipPath id="clip0">
<rect width="24" height="24" fill="white" transform="translate(8 8)"/>
</clipPath>
</defs>
</svg>
