<svg width="40" height="40" viewBox="0 0 40 40" fill="none" xmlns="http://www.w3.org/2000/svg">
<circle cx="20" cy="20" r="20" fill="#EF466F"/>
<g clip-path="url(#clip0)">
<path d="M14.2835 17.1131H8.70865C8.4229 17.1131 8.16513 16.9415 8.05488 16.6779C7.94468 16.4142 8.00346 16.1102 8.20413 15.9068L13.8498 10.1827C13.9829 10.0477 14.1647 9.97168 14.3543 9.97168H17.1417C17.3872 9.97168 17.6153 10.0988 17.7444 10.3076C17.8736 10.5165 17.8854 10.7772 17.7757 10.9969L14.9174 16.721C14.7975 16.9613 14.552 17.1131 14.2835 17.1131Z" fill="#A0EBFF"/>
<path d="M31.2914 17.1131H25.7166C25.448 17.1131 25.2026 16.9613 25.0826 16.721L22.2243 10.9969C22.1146 10.7772 22.1265 10.5165 22.2556 10.3076C22.3847 10.0988 22.6128 9.97168 22.8583 9.97168H25.6457C25.8353 9.97168 26.0171 10.0477 26.1502 10.1827L31.7959 15.9068C31.9965 16.1103 32.0554 16.4143 31.9452 16.6779C31.8349 16.9415 31.5771 17.1131 31.2914 17.1131Z" fill="#73C8F0"/>
<path d="M13.491 16.386L17.1416 9.97168H22.8582L26.4977 16.386H13.491Z" fill="#D2F0FF"/>
<path d="M24.9498 16.3858L19.352 29.033C19.2102 29.3532 19.3237 29.7291 19.6191 29.9173C19.7365 29.9921 19.8686 30.0285 19.9997 30.0285C20.1984 30.0285 20.3946 29.9451 20.5335 29.7862L31.8249 16.8706C31.9442 16.7341 32.0038 16.5604 31.9993 16.3857H24.9498V16.3858Z" fill="#0073AA"/>
<path d="M15.0503 16.3857H8.00073C7.99623 16.5603 8.05585 16.7341 8.17519 16.8706L19.4665 29.7862C19.6054 29.9451 19.8017 30.0285 20.0004 30.0285C20.1314 30.0285 20.2636 29.9922 20.381 29.9173C20.6763 29.7291 20.7898 29.3532 20.648 29.033L15.0503 16.3857Z" fill="#41B4E6"/>
<path d="M13.491 16.3857L19.3519 29.6066C19.4654 29.863 19.7195 30.0284 19.9999 30.0284C20.2804 30.0284 20.5345 29.863 20.6479 29.6066L26.4977 16.3857H13.491Z" fill="#A0EBFF"/>
<path d="M19.9944 16.386H26.4977L22.8582 9.97168H19.9944V16.386Z" fill="#41B4E6"/>
<path d="M20 30.0284C20.2805 30.0284 20.5345 29.863 20.648 29.6066L26.4977 16.3857H20V30.0284Z" fill="#73C8F0"/>
</g>
<defs>
<clipPath id="clip0">
<rect width="24" height="24" fill="white" transform="translate(8 8)"/>
</clipPath>
</defs>
</svg>
