<svg width="40" height="40" viewBox="0 0 40 40" fill="none" xmlns="http://www.w3.org/2000/svg">
<path d="M16.606 16.9811C16.0845 17.0254 15.5987 17.2639 15.2446 17.6493C14.8906 18.0347 14.6941 18.539 14.6941 19.0623C14.6941 19.5857 14.8906 20.09 15.2446 20.4754C15.5987 20.8608 16.0845 21.0993 16.606 21.1436C17.1275 21.0993 17.6133 20.8608 17.9674 20.4754C18.3214 20.09 18.5179 19.5857 18.5179 19.0623C18.5179 18.539 18.3214 18.0347 17.9674 17.6493C17.6133 17.2639 17.1275 17.0254 16.606 16.9811ZM23.4497 16.9811C23.0306 16.9456 22.6105 17.0375 22.2445 17.2447C21.8784 17.4519 21.5835 17.7648 21.3982 18.1425C21.213 18.5201 21.1461 18.9449 21.2062 19.3612C21.2664 19.7775 21.4509 20.166 21.7355 20.4757C22.0201 20.7854 22.3916 21.002 22.8013 21.0971C23.2111 21.1922 23.64 21.1613 24.0319 21.0086C24.4239 20.8558 24.7605 20.5883 24.9979 20.2411C25.2353 19.8938 25.3623 19.483 25.3622 19.0623C25.3843 18.5328 25.1952 18.0162 24.8366 17.626C24.478 17.2358 23.9792 17.0038 23.4497 16.9811Z" fill="#FCFCFD"/>
<path d="M32.5625 1.25009H7.43748C6.9455 1.24131 6.45688 1.33278 6.0014 1.51894C5.54591 1.70509 5.13309 1.98203 4.78809 2.33288C4.44309 2.68373 4.17313 3.10114 3.99466 3.55969C3.81618 4.01824 3.73293 4.50833 3.74998 5.00009V30.6251C3.74038 31.1202 3.83082 31.6121 4.01588 32.0714C4.20093 32.5307 4.4768 32.948 4.82695 33.2981C5.1771 33.6483 5.59433 33.9241 6.05364 34.1092C6.51295 34.2943 7.00488 34.3847 7.49998 34.3751H28.75L27.7062 30.8563L30.1062 33.0876L32.375 35.1876L36.25 38.7501V5.00009C36.267 4.50833 36.1838 4.01824 36.0053 3.55969C35.8268 3.10114 35.5569 2.68373 35.2119 2.33288C34.8669 1.98203 34.454 1.70509 33.9986 1.51894C33.5431 1.33278 33.0545 1.24131 32.5625 1.25009ZM25.325 25.7376C25.325 25.7376 24.65 24.9313 24.0875 24.2188C25.4466 23.8989 26.6487 23.1085 27.4812 21.9876C26.8066 22.4366 26.0832 22.8077 25.325 23.0938C24.4527 23.4662 23.5404 23.7367 22.6062 23.9001C21.0004 24.1957 19.3535 24.1894 17.75 23.8813C16.8086 23.6971 15.886 23.4273 14.9937 23.0751C14.2436 22.7841 13.527 22.4132 12.8562 21.9688C13.6586 23.0663 14.8193 23.8489 16.1375 24.1813C15.575 24.8938 14.8812 25.7376 14.8812 25.7376C10.7375 25.6063 9.16248 22.8876 9.16248 22.8876C9.22336 19.0864 10.1466 15.3487 11.8625 11.9563C13.3725 10.7704 15.2135 10.0825 17.1312 9.98759L17.3187 10.2126C13.9437 11.1876 12.3875 12.6688 12.3875 12.6688C12.3875 12.6688 12.8 12.4438 13.4937 12.1251C14.8415 11.5099 16.2779 11.1112 17.75 10.9438C17.8549 10.9221 17.9616 10.9096 18.0687 10.9063C19.3252 10.7426 20.5968 10.73 21.8562 10.8688C23.8369 11.095 25.7541 11.7065 27.5 12.6688C26.1298 11.5535 24.5385 10.7419 22.8312 10.2876L23.0937 9.98759C25.0115 10.0825 26.8524 10.7704 28.3625 11.9563C30.0784 15.3487 31.0016 19.0864 31.0625 22.8876C31.0625 22.8876 29.4687 25.6063 25.325 25.7376Z" fill="#FCFCFD"/>
</svg>
