<svg width="40" height="40" viewBox="0 0 40 40" fill="none" xmlns="http://www.w3.org/2000/svg">
<g clip-path="url(#clip0)">
<path d="M38.75 0.000244141H1.25C0.918479 0.000244141 0.600537 0.13194 0.366117 0.366361C0.131696 0.600781 0 0.918724 0 1.25024L0 38.7502C0 39.0818 0.131696 39.3997 0.366117 39.6341C0.600537 39.8685 0.918479 40.0002 1.25 40.0002H38.75C39.0815 40.0002 39.3995 39.8685 39.6339 39.6341C39.8683 39.3997 40 39.0818 40 38.7502V1.25024C40 0.918724 39.8683 0.600781 39.6339 0.366361C39.3995 0.13194 39.0815 0.000244141 38.75 0.000244141V0.000244141ZM33.2306 9.47712L31.0856 11.534C30.9948 11.603 30.9246 11.6956 30.8826 11.8017C30.8406 11.9078 30.8285 12.0234 30.8475 12.1359V27.2502C30.8285 27.3627 30.8406 27.4783 30.8826 27.5844C30.9246 27.6905 30.9948 27.7831 31.0856 27.8521L33.1806 29.909V30.3602H22.6425V29.909L24.8125 27.8009C25.0256 27.5877 25.0256 27.5252 25.0256 27.199V14.9834L18.9919 30.309H18.1794L11.1512 14.9834V25.2546C11.1223 25.4677 11.1423 25.6846 11.2097 25.8888C11.277 26.0931 11.39 26.2793 11.54 26.4334L14.3625 29.8571V30.3084H6.35875V29.8571L9.18125 26.4334C9.33003 26.2792 9.44048 26.0921 9.50366 25.8874C9.56685 25.6826 9.58101 25.4659 9.545 25.2546V13.3796C9.561 13.2174 9.53868 13.0538 9.47984 12.9018C9.421 12.7498 9.32729 12.6138 9.20625 12.5046L6.6975 9.48212V9.03087H14.4881L20.51 22.2371L25.8044 9.03087H33.2306V9.47712Z" fill="#FCFCFD"/>
</g>
<defs>
<clipPath id="clip0">
<rect width="40" height="40" fill="white" transform="translate(0 0.000244141)"/>
</clipPath>
</defs>
</svg>
