<svg width="40" height="40" viewBox="0 0 40 40" fill="none" xmlns="http://www.w3.org/2000/svg">
<path fill-rule="evenodd" clip-rule="evenodd" d="M20 40C31.0457 40 40 31.0457 40 20C40 8.95431 31.0457 0 20 0C8.95431 0 0 8.95431 0 20C0 31.0457 8.95431 40 20 40ZM16.3333 29.1665C16.8198 29.1665 17.0421 28.9501 17.3107 28.6885L17.3333 28.6665L19.7356 26.3307L24.7333 30.0231C25.6531 30.5306 26.3169 30.2678 26.546 29.1692L29.8268 13.7087C30.1627 12.362 29.3135 11.7512 28.4336 12.1506L9.1686 19.5791C7.85358 20.1066 7.86125 20.8402 8.9289 21.1671L13.8727 22.7102L25.3182 15.4893C25.8585 15.1617 26.3544 15.3378 25.9474 15.6991L16.6738 24.0678L16.6737 24.0677L16.6737 24.0679L16.6733 24.0682L16.6736 24.0684L16.3333 29.1665Z" fill="#FCFCFD"/>
</svg>
