<svg width="32" height="32" viewBox="0 0 32 32" fill="none" xmlns="http://www.w3.org/2000/svg">
<path fill-rule="evenodd" clip-rule="evenodd" d="M26.6667 17.3332H18.0001C17.6319 17.3332 17.3334 17.6316 17.3334 17.9998V27.3332C17.3334 27.7014 17.6319 27.9998 18.0001 27.9998H26.6667C27.4031 27.9998 28.0001 27.4029 28.0001 26.6665V18.6665C28.0001 17.9301 27.4031 17.3332 26.6667 17.3332ZM14.6667 14.6665V30.6665H26.6667C28.8759 30.6665 30.6667 28.8756 30.6667 26.6665V18.6665C30.6667 16.4574 28.8759 14.6665 26.6667 14.6665H14.6667Z" fill="#FCFCFD"/>
<path d="M21.3333 14.6665H23.9999V18.6665C23.9999 19.4029 23.403 19.9998 22.6666 19.9998C21.9302 19.9998 21.3333 19.4029 21.3333 18.6665V14.6665Z" fill="#FCFCFD"/>
<path fill-rule="evenodd" clip-rule="evenodd" d="M14.6666 17.9998C14.6666 17.6316 14.3681 17.3332 13.9999 17.3332H5.33325C4.59687 17.3332 3.99992 17.9301 3.99992 18.6665V26.6665C3.99992 27.4029 4.59687 27.9998 5.33325 27.9998H13.9999C14.3681 27.9998 14.6666 27.7014 14.6666 27.3332V17.9998ZM5.33325 14.6665C3.12411 14.6665 1.33325 16.4574 1.33325 18.6665V26.6665C1.33325 28.8756 3.12411 30.6665 5.33325 30.6665H17.3333V14.6665H5.33325Z" fill="#FCFCFD"/>
<path d="M8 14.6665H10.6667V18.6665C10.6667 19.4029 10.0697 19.9998 9.33333 19.9998C8.59695 19.9998 8 19.4029 8 18.6665V14.6665Z" fill="#FCFCFD"/>
<path fill-rule="evenodd" clip-rule="evenodd" d="M20 4.00016H12C11.2636 4.00016 10.6667 4.59712 10.6667 5.3335V14.6668H21.3333V5.3335C21.3333 4.59712 20.7364 4.00016 20 4.00016ZM12 1.3335C9.79086 1.3335 8 3.12436 8 5.3335V17.3335H24V5.3335C24 3.12436 22.2091 1.3335 20 1.3335H12Z" fill="#FCFCFD"/>
<path d="M14.6667 1.3335H17.3334V5.3335C17.3334 6.06988 16.7365 6.66683 16.0001 6.66683C15.2637 6.66683 14.6667 6.06988 14.6667 5.3335V1.3335Z" fill="#FCFCFD"/>
</svg>
