<svg width="32" height="32" viewBox="0 0 32 32" fill="none" xmlns="http://www.w3.org/2000/svg">
<path fill-rule="evenodd" clip-rule="evenodd" d="M16.0001 26.6665C21.8911 26.6665 26.6667 21.8909 26.6667 15.9998C26.6667 10.1088 21.8911 5.33317 16.0001 5.33317C10.109 5.33317 5.33341 10.1088 5.33341 15.9998C5.33341 21.8909 10.109 26.6665 16.0001 26.6665ZM16.0001 29.3332C23.3639 29.3332 29.3334 23.3636 29.3334 15.9998C29.3334 8.63604 23.3639 2.6665 16.0001 2.6665C8.63628 2.6665 2.66675 8.63604 2.66675 15.9998C2.66675 23.3636 8.63628 29.3332 16.0001 29.3332Z" fill="#FCFCFD"/>
<path d="M14.6667 9.33333C14.6667 8.59695 15.2637 8 16.0001 8C16.7365 8 17.3334 8.59695 17.3334 9.33333C19.5426 9.33333 21.3334 11.1242 21.3334 13.3333C21.3334 14.0697 20.7365 14.6667 20.0001 14.6667C19.2637 14.6667 18.6667 14.0697 18.6667 13.3333C18.6667 12.597 18.0698 12 17.3334 12H14.3246C13.7772 12 13.3334 12.4438 13.3334 12.9912C13.3334 13.4179 13.6064 13.7967 14.0112 13.9316L18.8323 15.5386C20.3259 16.0365 21.3334 17.4343 21.3334 19.0088C21.3334 21.029 19.6957 22.6667 17.6755 22.6667H17.3334C17.3334 23.403 16.7365 24 16.0001 24C15.2637 24 14.6667 23.403 14.6667 22.6667C12.4576 22.6667 10.6667 20.8758 10.6667 18.6667C10.6667 17.9303 11.2637 17.3333 12.0001 17.3333C12.7365 17.3333 13.3334 17.9303 13.3334 18.6667C13.3334 19.403 13.9304 20 14.6667 20H17.6755C18.223 20 18.6667 19.5562 18.6667 19.0088C18.6667 18.5821 18.3937 18.2033 17.989 18.0684L13.1679 16.4614C11.6742 15.9635 10.6667 14.5657 10.6667 12.9912C10.6667 10.971 12.3044 9.33333 14.3246 9.33333H14.6667Z" fill="#FCFCFD"/>
</svg>
